<?xml version="1.0" standalone="no"?>
<!DOCTYPE svg PUBLIC "-//W3C//DTD SVG 1.1//EN" "http://www.w3.org/Graphics/SVG/1.1/DTD/svg11.dtd" >
<svg xmlns="http://www.w3.org/2000/svg">
<metadata>
Created by FontForge 20120731 at Tue Oct 11 19:16:18 2016
 By admin
</metadata>
<defs>
<font id="iconfont" horiz-adv-x="1024" >
  <font-face 
    font-family="iconfont"
    font-weight="500"
    font-stretch="normal"
    units-per-em="1024"
    panose-1="2 0 6 3 0 0 0 0 0 0"
    ascent="896"
    descent="-128"
    x-height="792"
    bbox="0 -172 1024 896"
    underline-thickness="50"
    underline-position="-100"
    unicode-range="U+0078-E61C"
  />
<missing-glyph horiz-adv-x="374" 
d="M34 0v682h272v-682h-272zM68 34h204v614h-204v-614z" />
    <glyph glyph-name=".notdef" horiz-adv-x="374" 
d="M34 0v682h272v-682h-272zM68 34h204v614h-204v-614z" />
    <glyph glyph-name=".null" horiz-adv-x="0" 
 />
    <glyph glyph-name="nonmarkingreturn" horiz-adv-x="341" 
 />
    <glyph glyph-name="x" unicode="x" horiz-adv-x="1001" 
d="M281 543q-27 -1 -53 -1h-83q-18 0 -36.5 -6t-32.5 -18.5t-23 -32t-9 -45.5v-76h912v41q0 16 -0.5 30t-0.5 18q0 13 -5 29t-17 29.5t-31.5 22.5t-49.5 9h-133v-97h-438v97zM955 310v-52q0 -23 0.5 -52t0.5 -58t-10.5 -47.5t-26 -30t-33 -16t-31.5 -4.5q-14 -1 -29.5 -0.5
t-29.5 0.5h-32l-45 128h-439l-44 -128h-29h-34q-20 0 -45 1q-25 0 -41 9.5t-25.5 23t-13.5 29.5t-4 30v167h911zM163 247q-12 0 -21 -8.5t-9 -21.5t9 -21.5t21 -8.5q13 0 22 8.5t9 21.5t-9 21.5t-22 8.5zM316 123q-8 -26 -14 -48q-5 -19 -10.5 -37t-7.5 -25t-3 -15t1 -14.5
t9.5 -10.5t21.5 -4h37h67h81h80h64h36q23 0 34 12t2 38q-5 13 -9.5 30.5t-9.5 34.5q-5 19 -11 39h-368zM336 498v228q0 11 2.5 23t10 21.5t20.5 15.5t34 6h188q31 0 51.5 -14.5t20.5 -52.5v-227h-327z" />
    <glyph glyph-name="uniE600" unicode="&#xe600;" 
d="M768 896h-512q-40 0 -68 -28t-28 -68v-832q0 -40 28 -68t68 -28h512q40 0 68 28t28 68v832q0 40 -28 68t-68 28zM800 -32q0 -13 -9.5 -22.5t-22.5 -9.5h-512q-13 0 -22.5 9.5t-9.5 22.5v64h576v-64zM800 64h-576v640h576v-640zM800 736h-576v64q0 13 9.5 22.5t22.5 9.5
h512q13 0 22.5 -9.5t9.5 -22.5v-64zM576 784q0 -7 -4.5 -11.5t-11.5 -4.5h-96q-7 0 -11.5 4.5t-4.5 11.5t4.5 11.5t11.5 4.5h96q7 0 11.5 -4.5t4.5 -11.5zM544 -16q0 -6 -4.5 -11t-11.5 -5h-32q-7 0 -11.5 5t-4.5 11q0 7 4.5 11.5t11.5 4.5h32q7 0 11.5 -4.5t4.5 -11.5z" />
    <glyph glyph-name="uniE601" unicode="&#xe601;" 
d="M342 304l420 383q11 11 11 26.5t-11 26.5t-26.5 11t-26.5 -11l-447 -407q-11 -12 -11 -29t11 -28l447 -408q11 -11 26.5 -11t26.5 11t11 26.5t-11 26.5z" />
    <glyph glyph-name="uniE602" unicode="&#xe602;" 
d="M763 329l-448 408q-11 11 -26.5 11t-26.5 -11t-11 -26.5t11 -26.5l421 -384l-421 -383q-11 -11 -11 -26.5t11 -26.5t26.5 -11t26.5 11l448 408q11 12 10 28q1 17 -10 29z" />
    <glyph glyph-name="uniE603" unicode="&#xe603;" 
d="M906 275h-320q-20 0 -34.5 -14.5t-14.5 -34.5v-320q0 -21 14.5 -35.5t34.5 -14.5h320q21 0 35.5 14.5t14.5 35.5v320q0 20 -14.5 34.5t-35.5 14.5zM906 -94h-320v320h320v-320zM438 275h-320q-21 0 -35.5 -14.5t-14.5 -34.5v-320q0 -21 14.5 -35.5t35.5 -14.5h320
q20 0 34.5 14.5t14.5 35.5v320q0 20 -14.5 34.5t-34.5 14.5zM438 -94h-320v320h320v-320zM906 744h-320q-20 0 -34.5 -14.5t-14.5 -35.5v-320q0 -20 14.5 -34.5t34.5 -14.5h320q21 0 35.5 14.5t14.5 34.5v320q0 21 -14.5 35.5t-35.5 14.5zM906 374h-320v320h320v-320z
M438 744h-320q-21 0 -35.5 -14.5t-14.5 -35.5v-320q0 -20 14.5 -34.5t35.5 -14.5h320q20 0 34.5 14.5t14.5 34.5v320q0 21 -14.5 35.5t-34.5 14.5zM438 374h-320v320h320v-320z" />
    <glyph glyph-name="uniE604" unicode="&#xe604;" 
d="M668 486l-134 187q-8 10 -21 11h-1h-1q-13 -1 -21 -11l-135 -187q-6 -10 -4.5 -21t10.5 -17.5t20 -5t18 10.5l113 158l113 -157q6 -9 17 -11t20 5t10.5 18t-4.5 20zM748 -42h1q10 8 10 22v230q-1 11 -9 19.5t-19 8.5t-19 -8t-7 -19v-194l-183 60q-11 4 -20.5 -1
t-13 -15.5t1.5 -21t16 -13.5l218 -72q13 -4 24 3v1zM895 406h-1v1v1q-5 12 -17 16l-220 70q-11 4 -21 -1.5t-13.5 -16t1.5 -20.5t16 -13l184 -59l-114 -156q-6 -9 -4.5 -20t10.5 -17t20.5 -4.5t18.5 10.5l135 186q8 10 5 23zM535 60.5q-3 10.5 -13 15.5t-21 1l-183 -60
l1 194q0 11 -7.5 19t-19 8t-19.5 -8.5t-8 -19.5l-1 -230q0 -14 10 -22q1 0 1 -0.5t1 -0.5q11 -7 23 -3l218 72q11 3 16 13.5t2 21zM401 476.5q-4 10.5 -14 16t-21 1.5l-219 -70q-13 -4 -17 -16l-1 -1v-1v0q-4 -13 4 -23l136 -186q7 -9 18 -10.5t20 4.5t11 17t-5 20l-114 156
l185 59q10 3 15.5 13t1.5 20.5z" />
    <glyph glyph-name="uniE605" unicode="&#xe605;" 
d="M147 -23q-28 0 -48 19.5t-20 46.5v528q0 27 20 46.5t48 19.5h169v-51h-169q-7 0 -12 -4.5t-5 -10.5v-528q0 -6 5 -10.5t12 -4.5h686q7 0 12 4.5t5 10.5v190h50v-190q0 -27 -19.5 -46.5t-47.5 -19.5h-686v0zM436 160q-1 5 -2.5 17t0 44.5t7 65.5t23 77.5t44.5 83.5
q102 146 330 198l-184 99l26 48l266 -144l-156 -246l-46 28l102 162q-204 -48 -293 -176q-51 -73 -62 -169q-6 -49 -1 -85l1 -9h-54l-1 6v0zM443 161q-1 6 -2 19t0.5 44.5t7.5 63.5t22.5 75t43.5 80q111 160 375 206l6 -39q-247 -42 -349 -188q-24 -34 -39 -74t-20.5 -69
t-6.5 -60.5t-0.5 -40.5t1.5 -16l-39 -1v0zM787 413l-32 21l125 198l-216 117l19 34l252 -137l-148 -233v0zM787 413z" />
    <glyph glyph-name="uniE606" unicode="&#xe606;" 
d="M512 347q-57 0 -98 40q-5 6 -5 14.5t5.5 14t14 5.5t14.5 -6q28 -28 69 -28t69 28q6 6 14.5 6t14 -5.5t5.5 -14t-5 -14.5q-41 -40 -98 -40zM787 81h-550q-10 0 -16 8t-3 17q36 127 166 189q-41 31 -65 77t-24 98q0 90 63.5 153.5t153.5 63.5t153.5 -63.5t63.5 -153.5
q0 -52 -24 -98t-65 -77q130 -62 166 -189q3 -9 -3 -17t-16 -8zM265 121h494q-42 104 -171 153q-12 4 -12.5 17.5t11.5 18.5q46 22 74 65.5t28 94.5q0 73 -52 125t-125 52t-125 -52t-52 -125q0 -51 28 -94.5t74 -65.5q12 -5 11.5 -18.5t-12.5 -17.5q-129 -49 -171 -153z" />
    <glyph glyph-name="uniE607" unicode="&#xe607;" 
d="M284.5 632q7.5 0 13 5.5t5.5 12.5q0 87 61.5 148t147.5 61t147.5 -61t61.5 -148q0 -7 5 -12.5t13 -5.5t13 5.5t5 12.5q0 102 -72 174t-173.5 72t-173 -72t-71.5 -174q0 -7 5 -12.5t12.5 -5.5zM738 598q-100 69 -226 69.5t-226 -69.5q-81 -56 -126.5 -143t-45.5 -185
q0 -108 53 -199.5t145 -145t200 -53.5t200 53.5t145 145t53 199.5q0 98 -45.5 185t-126.5 143zM512 -91q-98 0 -181.5 48.5t-132 131.5t-48.5 181q0 89 41.5 168t115.5 130q91 63 205 63t205 -63q74 -51 115.5 -130t41.5 -168q0 -98 -48.5 -181t-132 -131.5t-181.5 -48.5z
M434 448q-36 -35 -36 -83q0 -58 48 -93v-144q0 -27 19.5 -46.5t46.5 -19.5t47 19q19 20 19 47v144q48 35 48 93q0 48 -36 82q-32 31 -78 31t-78 -30zM551 298q-9 -5 -9 -16v-154q0 -12 -9 -21t-21 -9t-21 9t-9 21v154q0 11 -9 16q-39 23 -39 67q0 33 25 56q23 22 53 22
t53 -22q25 -23 25 -56q0 -44 -39 -67z" />
    <glyph glyph-name="uniE608" unicode="&#xe608;" 
d="M161 209l351 351l351 -352z" />
    <glyph glyph-name="uniE609" unicode="&#xe609;" 
d="M855 732h-686q-38 0 -65 -27.5t-27 -65.5v-510q0 -38 27 -65.5t65 -27.5h686q38 0 65 27.5t27 65.5v510q0 38 -27 65.5t-65 27.5zM889 121q0 -19 -5 -24t-24 -5h-696q-19 0 -24 5t-5 24v522q0 19 5 24t24 5h696q19 0 24 -5t5 -24v-522zM408 364q25 15 39.5 40.5
t14.5 55.5q0 47 -32 79.5t-78 32.5t-78.5 -32.5t-32.5 -79.5q0 -30 15 -56t40 -40q-49 -15 -86.5 -52t-51.5 -88q-3 -10 2 -18t14 -11q3 -1 6 -1q17 0 22 17q14 50 56 82t94 32t94 -32t57 -82q2 -9 10.5 -14t17.5 -2t14 11t2 18q-15 51 -52 88t-87 52zM352 395q-27 0 -46 19
t-19 46.5t19 46.5t46 19t46 -19t19 -46.5t-19 -46.5t-46 -19zM597 297q-10 0 -18.5 -5.5t-8.5 -15.5v-62q0 -9 8.5 -14t18.5 -5q12 0 21.5 5t9.5 14v62q0 9 -10 15t-21 6zM713 297q-10 0 -18.5 -5.5t-8.5 -15.5v-62q0 -9 8.5 -14t18.5 -5q12 0 21.5 5t9.5 14v62q0 9 -10 15
t-21 6zM829 369q-9 0 -18 -11.5t-9 -21.5v-122q0 -9 8 -14t19 -5t21 5t10 14v122q0 10 -10.5 21.5t-20.5 11.5z" />
    <glyph glyph-name="uniE60A" unicode="&#xe60a;" 
d="M194 548l318 -397l318 397h-636z" />
    <glyph glyph-name="uniE60B" unicode="&#xe60b;" 
d="M379 41q-18 0 -30 12l-282 282q-12 12 -12 29.5t12 29.5t29.5 12t29.5 -12l253 -253l522 522q12 13 29 13t29.5 -12.5t12.5 -29.5t-13 -30l-551 -551q-12 -12 -29 -12zM379 41z" />
    <glyph glyph-name="uniE60C" unicode="&#xe60c;" 
d="M512 773q-96 0 -183.5 -37.5t-151 -101t-100.5 -151t-37 -183.5t37 -183.5t100.5 -150.5t151 -100.5t183.5 -37.5t183.5 37.5t151 100.5t100.5 150.5t37 183.5t-37 183.5t-100.5 151t-151 101t-183.5 37.5zM512 -129q-117 0 -216 57.5t-156.5 156t-57.5 215.5t57.5 216
t156.5 156.5t216 57.5t216 -57.5t156.5 -156.5t57.5 -216t-57.5 -215.5t-156.5 -156t-216 -57.5zM792 -50v2q0 3 -1 6q-9 77 -55.5 138t-116.5 91q41 28 64.5 72t23.5 95q0 83 -59 142.5t-143 59.5t-143 -59.5t-59 -142.5q0 -51 23.5 -95t64.5 -72q-69 -30 -115.5 -90
t-56.5 -136q-2 -4 -2 -9v-2v0v-1q0 -12 8.5 -20.5t20.5 -8.5t20.5 8.5t8.5 20.5v1h1q10 82 71 139.5t145 62.5q7 -1 13 -1t12 1q84 -5 145.5 -62.5t71.5 -139.5h1v-1q0 -12 8.5 -20.5t20 -8.5t20 8.5t8.5 20.5v1v0zM505 209q-60 0 -102.5 42.5t-42.5 102t42.5 102
t102.5 42.5t102 -42.5t42 -102t-42 -102t-102 -42.5zM505 209z" />
    <glyph glyph-name="uniE60D" unicode="&#xe60d;" 
d="M370 226l-19 50l-19 -50h-51l41 -32l-19 -57l48 35l47 -35l-19 57l41 32h-50zM351 454l-19 -51h-51l41 -32l-19 -57l48 35l47 -35l-19 57l41 32h-50zM712 400h-208q-10 0 -17 -7t-7 -17t7 -17t17 -7h208q10 0 17 7t7 17t-7 17t-17 7zM768 768h-512q-53 0 -90.5 -37.5
t-37.5 -90.5v-512q0 -53 37.5 -90.5t90.5 -37.5h512q53 0 90.5 37.5t37.5 90.5v512q0 53 -37.5 90.5t-90.5 37.5zM516 720h163v-151l-68 43q-12 7 -24 0l-71 -44v152zM848 144q0 -40 -28 -68t-68 -28h-480q-40 0 -68 28t-28 68v480q0 40 28 68t68 28h198v-193q0 -14 12 -21
t23 1l94 57l91 -57q6 -4 13 -4q6 0 11 3q12 7 12 21v193h26q40 0 68 -28t28 -68v-480zM712 208h-208q-10 0 -17 -7t-7 -17t7 -17t17 -7h208q10 0 17 7t7 17t-7 17t-17 7z" />
    <glyph glyph-name="uniE60E" unicode="&#xe60e;" 
d="M512 896q-138 0 -256 -69t-187 -187t-69 -256t69 -256t187 -187t256 -69t256 69t187 187t69 256t-69 256t-187 187t-256 69zM512 -64q-121 0 -224.5 60t-163.5 163.5t-60 224.5t60 224.5t163.5 163.5t224.5 60t224.5 -60t163.5 -163.5t60 -224.5t-60 -224.5
t-163.5 -163.5t-224.5 -60zM806 610q-29 0 -49.5 -20.5t-20.5 -49.5q0 -19 11 -36l-117 -140q-30 7 -56 -10l-110 77q1 5 1 9q0 29 -20.5 49.5t-49.5 20.5t-49.5 -20.5t-20.5 -49.5q0 -18 9 -34l-94 -112q-11 3 -22 3q-29 0 -49.5 -20.5t-20.5 -49t20.5 -49t49.5 -20.5
t49.5 20.5t20.5 48.5q0 16 -7 30l97 115q32 -8 58 12l109 -76q-1 -6 -1 -12q0 -29 20.5 -49.5t49.5 -20.5t49.5 20.5t20.5 49.5q0 19 -10 36l118 140q7 -2 14 -2q29 0 49.5 21t20.5 49.5t-20.5 49t-49.5 20.5z" />
    <glyph glyph-name="uniE60F" unicode="&#xe60f;" 
d="M85 172v-145q0 -12 8.5 -20.5t20.5 -8.5h71q11 0 19.5 8.5t8.5 20.5v259zM938 768l-129 -40q-11 -3 -12.5 -11t6.5 -16l34 -32l-281 -258l-172 160q-14 14 -29 1l-284 -254q-6 -6 -6.5 -14.5t4.5 -15.5q7 -7 16 -7q8 0 14 6l270 240l172 -161q6 -5 14.5 -5t14.5 5
l299 275l37 -35q9 -8 16.5 -5.5t10.5 13.5l26 135q3 11 -3.5 17t-17.5 2zM368 424l-58 -51v-345q0 -12 8.5 -20t20.5 -8h71q12 0 20 8t8 20v331zM760 28q0 -12 8.5 -20t20.5 -8h71q12 0 20 8t8 20v527l-128 -117v-410zM555 250l-20 18v-240q0 -12 8.5 -20t20.5 -8h71
q12 0 20 8t8 20v321z" />
    <glyph glyph-name="uniE610" unicode="&#xe610;" 
d="M878 -128h-17q-10 0 -17 7l-86 86l-88 -86q-7 -7 -17 -7h-36q-10 0 -17 7l-86 86l-87 -86q-8 -7 -17 -7h-37q-10 0 -17 7l-85 86l-88 -86q-7 -7 -17 -7h-20q-31 0 -52 21t-21 52v878q0 31 21 52t52 21h732q31 0 52 -21t21 -52v-878q0 -31 -21 -52t-52 -21zM870 -79h8
q11 0 17.5 6.5t6.5 17.5v878q0 11 -6.5 17.5t-17.5 6.5h-732q-11 0 -17.5 -6.5t-6.5 -17.5v-878q0 -11 6.5 -17.5t17.5 -6.5h10l98 95q7 7 16.5 7t17.5 -7l95 -95h17l97 95q8 7 17.5 7t17.5 -7l95 -95h17l97 95q7 7 17 7t17 -7zM683 433h-342q-11 0 -17.5 6.5t-6.5 17.5
t6.5 18t17.5 7h342q11 0 17.5 -7t6.5 -18t-6.5 -17.5t-17.5 -6.5zM683 603h-342q-9 0 -16.5 6.5t-7.5 15.5v3q0 9 6.5 16.5t15.5 7.5h2h342q9 0 16.5 -6.5t7.5 -15.5v-2q0 -10 -6.5 -17.5t-15.5 -7.5h-2zM341 311h342q11 0 17.5 -7t6.5 -17.5t-6.5 -17.5t-17.5 -7h-342
q-11 0 -17.5 7t-6.5 17.5t6.5 17.5t17.5 7z" />
    <glyph glyph-name="uniE611" unicode="&#xe611;" 
d="M284 794q75 0 127.5 -52.5t52.5 -126.5v-180h-180q-74 0 -126.5 52.5t-52.5 127t52.5 127t126.5 52.5zM110 158q0 74 52.5 127t127.5 53h179v-180q0 -74 -52.5 -126.5t-126.5 -52.5q-75 0 -127.5 52.5t-52.5 126.5zM745 794q-75 0 -127.5 -52.5t-52.5 -126.5v-180h180
q74 0 126.5 52.5t52.5 127t-52.5 127t-126.5 52.5zM919 158q0 74 -52.5 127t-126.5 53h-180v-180q0 -74 52.5 -126.5t127 -52.5t127 52.5t52.5 126.5z" />
    <glyph glyph-name="uniE612" unicode="&#xe612;" 
d="M967 637q0 3 -1 4q-27 43 -49 59q-33 24 -39 27q-51 24 -331 153q-2 1 -34 16h-2l-3 -2q-313 -144 -375 -172q-45 -21 -64 -60q-1 -3 -4.5 -8.5t-5.5 -9.5q-2 -5 -2 -9v-163v-169q0 -47 15 -90q23 -66 74 -126q108 -125 267 -195q37 -16 64 -19q6 -1 32 -1q34 0 41 1
q26 2 64 19q126 54 227 154q59 57 91 120q35 66 35 127v344zM873 175q-34 -60 -93 -114q-79 -73 -170 -112q-37 -17 -64 -19q-5 -1 -14 -1h-13q-56 -5 -120 27q-132 64 -215 170q-47 60 -63 124q-7 29 -7 59v299q0 4 1 8q19 57 76 78q14 6 55 24q124 57 262 120q4 1 8 -1
q27 -12 136.5 -61.5t168.5 -76.5q60 -28 87 -84q2 -4 2 -8v-155v-135q1 -73 -37 -142zM780 553q-19 12 -37 -5q-138 -139 -255 -256l-5 -6l-4 6q-44 45 -134 134l-4 4q-9 8 -20.5 7t-19.5 -10q-7 -9 -6.5 -20t8.5 -20q31 -30 158 -157q23 -23 45 0l276 276q4 3 5 4
q8 10 6 23t-13 20z" />
    <glyph glyph-name="uniE613" unicode="&#xe613;" 
d="M51 633q-20 -20 -20 -48.5t20 -48.5l412 -412q20 -20 49 -20t49 20l412 412q20 20 20 48.5t-20 49t-48.5 20.5t-49.5 -21l-363 -363l-363 363q-21 21 -49.5 21t-48.5 -21z" />
    <glyph glyph-name="uniE614" unicode="&#xe614;" 
d="M472 624l-399 -400q-17 -16 -17 -39.5t16.5 -40t40 -16.5t40.5 16l359 360l359 -360q17 -16 40.5 -16t40 16.5t16.5 40t-17 39.5l-399 400q-17 16 -40 16t-40 -16z" />
    <glyph glyph-name="uniE615" unicode="&#xe615;" 
d="M512 760q94 0 179.5 -36.5t147 -98.5t98 -147t36.5 -179t-36.5 -179.5t-98 -147t-147 -98t-179.5 -36.5t-179.5 36.5t-147 98t-98 147t-36.5 179.5t36.5 179t98 147t147 98.5t179.5 36.5zM512 -96q107 0 198 53t144 144t53 198t-53 198t-144 144t-198 53t-198 -53
t-144 -144t-53 -198t53 -198t144 -144t198 -53zM562 84q0 -21 -14.5 -35.5t-35.5 -14.5t-35.5 14.5t-14.5 35t14.5 35t35.5 14.5t35.5 -14.5t14.5 -34.5zM512 564q14 0 23.5 -10t9.5 -23v-298q0 -14 -9.5 -23.5t-23.5 -9.5t-23.5 9.5t-9.5 23.5v298q0 13 9.5 23t23.5 10z
M512 564z" />
    <glyph glyph-name="uniE616" unicode="&#xe616;" 
d="M374 289l138 138l138 -138h53l-191 190l-191 -190h53z" />
    <glyph glyph-name="uniE617" unicode="&#xe617;" 
d="M512 747q-91 0 -174 -35t-142.5 -95t-95 -143t-35.5 -174t35.5 -173.5t95 -142.5t142.5 -95.5t174 -35.5t174 35.5t142.5 95.5t95 142.5t35.5 173.5t-35.5 174t-95 143t-142.5 95t-174 35zM512 -108q-111 0 -205 54.5t-148.5 148.5t-54.5 205t54.5 205t148.5 148.5
t205 54.5t205 -54.5t148.5 -148.5t54.5 -205t-54.5 -205t-148.5 -148.5t-205 -54.5zM721 199l-190 108v275q0 10 -9 10h-20q-9 0 -9 -10v-292q0 -2 1 -5q2 -3 4 -4l204 -116q8 -4 13 4l10 17q5 8 -4 13z" />
    <glyph glyph-name="uniE618" unicode="&#xe618;" 
d="M514 -135l-16 18q-15 19 -38 48.5t-75 104t-91.5 141.5t-71.5 145t-32 130q0 131 86.5 207t235.5 76q154 0 237.5 -73t84.5 -210q1 -173 -292 -548q-14 -17 -15 -19zM512 699q-134 0 -210 -65.5t-76 -181.5q0 -53 34 -132.5t88.5 -163t91.5 -136t72 -96.5q1 2 2 2
q286 365 284 525q0 59 -18 104.5t-45.5 72t-66.5 43.5t-76.5 22.5t-79.5 5.5zM512 306q-52 0 -88.5 36.5t-36.5 88.5t36.5 88.5t88.5 36.5t88.5 -36.5t36.5 -88.5t-36.5 -88.5t-88.5 -36.5zM512 521q-37 0 -63 -26.5t-26 -63.5t26 -63t63 -26t63 26t26 63t-26 63.5t-63 26.5
z" />
    <glyph glyph-name="uniE619" unicode="&#xe619;" 
d="M485 379q27 13 49 35q56 56 56 136t-56 136t-134.5 56t-134.5 -56t-56 -136t56 -136q22 -22 49 -35q-88 -24 -153 -89q-47 -47 -73.5 -109t-26.5 -131v-3q1 -9 7.5 -15t14.5 -5.5t14 6.5t7 14v1v2q0 122 86 208q87 86 209.5 86t209.5 -86q86 -86 86 -208v-2q1 -9 7 -15
t14.5 -6.5t14.5 5.5t7 14v1v3q0 69 -26 131t-73 109q-65 65 -154 89zM295 447q-43 42 -43 102.5t43 103.5t104.5 43t104.5 -43t43 -103.5t-43 -102.5q-43 -44 -104.5 -44t-104.5 44zM864 290q-59 59 -137 84q18 11 32 26q56 56 56 135t-56 136q-55 55 -133 56
q-9 0 -15.5 -6.5t-6.5 -16t6.5 -16t15.5 -6.5q61 -1 104 -44q42 -43 42 -103t-42 -103q-38 -38 -92 -43h-12q-9 0 -15.5 -6.5t-6.5 -15.5v-1q0 -9 6.5 -16t15.5 -6h12q115 -5 196 -87q86 -86 86 -207q0 -10 6.5 -16.5t15 -6.5t15 6.5t6.5 16.5q0 69 -26 131t-73 109z" />
    <glyph glyph-name="uniE61A" unicode="&#xe61a;" 
d="M886 604h-748q-31 0 -53 -22t-22 -53v-458q0 -31 22 -53t53 -22h748q31 0 53 22t22 53v458q0 31 -22 53t-53 22zM868 550l-298 -264q-39 -35 -58 -35t-58 35l-298 264h712zM119 88v414l233 -205zM158 50l234 207l38 -34q34 -29 82 -29t82 29l38 34l234 -207h-708zM905 88
l-233 209l233 205v-414zM905 88z" />
    <glyph glyph-name="uniE61B" unicode="&#xe61b;" 
d="M960 50h-896v672h896v-672zM904 106v560h-784v-560h784zM680 246q-58 0 -99 41t-41 99t41 99t99 41t99 -41t41 -99t-41 -99t-99 -41zM680 302q35 0 59.5 24.5t24.5 59t-24.5 59.5t-59.5 25t-59.5 -25t-24.5 -59.5t24.5 -59t59.5 -24.5zM512 78h-56q0 92 65.5 158
t158.5 66t158.5 -66t65.5 -158h-56q0 69 -49.5 118.5t-119 49.5t-118.5 -49.5t-49 -118.5zM204 414v56h224v-56h-224zM204 302v56h140v-56h-140z" />
    <glyph glyph-name="uniE61C" unicode="&#xe61c;" 
d="M673 238q9 -7 20 -7q13 0 22 8.5t9 21.5q0 15 -13 24q-41 31 -93 49q56 34 89 89.5t33 122.5q0 103 -74 175t-178.5 72t-178.5 -72.5t-74 -175.5q0 -67 32.5 -123t87.5 -88q-58 -21 -103 -58.5t-67.5 -74t-36 -75t-17 -57t-3.5 -23.5q-1 -13 7 -22.5t21 -9.5q13 -1 23 7
t11 20q0 5 2 17t9 36t19 48t35 51.5t52.5 48.5t75.5 36.5t101 18.5q110 0 189 -59zM487.5 358q-78.5 0 -135 55t-56.5 133t56 132.5t135 54.5t135.5 -55t56.5 -133t-56.5 -132.5t-135 -54.5zM852 255q-8 2 -16 2q-25 0 -42.5 -18t-17.5 -43q0 -21 12 -37t30 -22
q-28 -48 -74 -76q-7 16 -22 26t-33 10q-25 0 -42.5 -18t-17.5 -43q0 -7 1 -12q4 -21 20.5 -35t37.5 -14q14 0 34 7q65 23 110.5 75.5t60.5 119.5q3 12 3 19q0 20 -12.5 36.5t-31.5 22.5z" />
  </font>
</defs>
</svg>
